<svg xmlns="http://www.w3.org/2000/svg" viewBox="0 0 100 100">
  <rect width="100" height="100" rx="22" fill="#0A2540"/>
  <path fill="#00A896" d="M72.7,92.977c0.255-0.194,0.597-0.593,0.938-1.408l0.021-0.051l-0.044-0.032c-0.099-0.073-9.96-7.412-20.834-16.371c-6.204-5.11-16.324-17.261-21.803-24.049c-7.062-8.749-12.359-15.912-13.421-17.718c11.146,14.851,22.92,28.526,35,40.653l0.114-0.075C52.249,72.942,42.277,49.85,41.76,49.402l-0.067-0.058l-0.041,0.079c-0.816,1.599-4.557,3.139-6.315,3.697c3.413-1.356,5.062-3.27,4.904-5.691l-0.001-0.02l-0.012-0.016c-1.984-2.791-3.609-5.454-5.181-8.03c-2.162-3.543-4.204-6.89-7.072-10.48l-0.144-0.18l0.02,0.229c0.072,0.851-0.691,3.074-2.967,5.697c1.096-2.034,1.748-5.888,1.307-7.458c-0.116-0.415-0.301-0.663-0.549-0.741c-1.77-1.46-4.185-3.906-6.521-6.271c-2.125-2.153-4.133-4.186-5.662-5.5c-0.06-0.051-0.143-0.077-0.247-0.077c-0.497,0-1.516,0.614-2.579,1.962c-0.077,0.098-0.134,0.167-0.176,0.215c0.067-0.171,0.195-0.447,0.319-0.717c0.621-1.345,1.069-2.39,0.732-2.602C10.289,12.675,1.527,3.865,0.167,0.056L0.161,0L0,0.002l0.031,0.086C0.226,1.693,0.215,3.581,0.204,5.58c-0.023,4.146-0.048,8.433,1.915,9.932c0.547,0.417,0.514,1.058,0.408,1.37c-0.065,0.193-0.165,0.295-0.228,0.295c-0.045,0-0.083-0.049-0.106-0.09c-0.426-0.736-0.493-0.736-0.552-0.736l-0.05,0.008L1.57,16.387c-0.058,0.078-0.013,0.271,0.187,0.945c0.065,0.22,0.132,0.448,0.172,0.62c0.178,0.749,0.569,1.945,1.13,3.459c0.558,1.505,2.664,6.706,3.521,8.725c0.294,0.693,1.365,1.19,3.181,1.476c1.488,0.234,3.154,0.28,4.149,0.307c0.301,0.008,0.575,0.016,0.742,0.026c-3.133,1.711-5.379,2.952-5.255,3.854c0.389,2.806,4.629,10.975,6.18,13.001c1.608,2.101,4.387,3.511,6.916,3.511c1.107,0,2.124-0.256,3.021-0.76c0.534-0.3,0.751-0.379,0.843-0.398c-0.289,0.454-3.846,3.215-5.405,3.43c-0.108,0.015-0.139,0.08-0.148,0.117c-0.051,0.217-0.205,0.875,15.11,11.697c7.551,5.336,15.24,10.578,15.313,10.628L80.188,100l0.096-0.101C75.813,94.811,73.644,93.372,72.7,92.977z" transform="translate(10 0) scale(.8)"/>
</svg>
